<svg width="46" height="61" viewBox="0 0 46 61" fill="none" xmlns="http://www.w3.org/2000/svg">
<path d="M15.6309 40.9517C14.1386 40.1698 12.4815 39.7652 10.8061 39.7652C8.83578 39.7633 6.82895 40.3292 5.07113 41.4992C3.57699 42.4934 2.41238 43.8228 1.63238 45.3133C0.850508 46.8075 0.443984 48.4627 0.443984 50.14C0.442109 52.1084 1.00977 54.1153 2.17988 55.8731C3.17234 57.3672 4.50172 58.5336 5.99398 59.3136C7.48637 60.0954 9.14352 60.5 10.8207 60.5C12.7891 60.5019 14.7959 59.936 16.5538 58.7641C18.0479 57.7716 19.2143 56.4423 19.9925 54.95C20.7762 53.4577 21.1809 51.8025 21.1809 50.1252C21.1809 48.1549 20.6151 46.148 19.445 44.3902C18.4525 42.8962 17.1233 41.7317 15.6309 40.9517ZM15.4496 52.5697C15.056 53.3223 14.4773 53.9851 13.7137 54.4941C12.8128 55.0911 11.8186 55.3694 10.8206 55.3712C9.97098 55.3712 9.12687 55.1642 8.3743 54.7687C7.62172 54.3732 6.95891 53.7983 6.44984 53.0328C5.85289 52.1319 5.57457 51.1377 5.57281 50.1397C5.57281 49.292 5.77977 48.4477 6.17527 47.6934C6.57078 46.9408 7.1457 46.2798 7.91117 45.7708C8.81211 45.1739 9.80633 44.8938 10.8061 44.8919C11.6538 44.8919 12.498 45.0989 13.2505 45.4944C14.0029 45.8899 14.6641 46.4667 15.1749 47.232C15.7719 48.1311 16.0502 49.1253 16.052 50.1252C16.0521 50.973 15.8451 51.8171 15.4496 52.5697Z" fill="#DEC7A6"/>
<path d="M43.82 44.3904C42.8275 42.8962 41.4982 41.7316 40.0078 40.9516C38.5136 40.1697 36.8584 39.7651 35.1811 39.7651C33.2108 39.7632 31.2039 40.3291 29.448 41.4991C27.952 42.4933 26.7875 43.8227 26.0075 45.3132C25.2256 46.8073 24.8191 48.4626 24.8191 50.1399C24.8172 52.1083 25.3849 54.1152 26.555 55.873C27.5492 57.3671 28.8768 58.5335 30.3691 59.3135C31.8632 60.0954 33.5185 60.5 35.1957 60.5C37.1641 60.5019 39.1709 59.936 40.9288 58.7641C42.4229 57.7716 43.5893 56.4423 44.3693 54.95C45.1511 53.4577 45.5558 51.8025 45.5558 50.1252C45.5577 48.155 44.99 46.1482 43.82 44.3904ZM39.8265 52.5697C39.431 53.3223 38.8542 53.9851 38.0888 54.4941C37.1879 55.0911 36.1937 55.3694 35.1957 55.3712C34.3461 55.3712 33.502 55.1642 32.7494 54.7687C31.9968 54.3732 31.334 53.7983 30.825 53.0328C30.228 52.1319 29.9497 51.1377 29.9479 50.1397C29.9479 49.292 30.1549 48.4477 30.5504 47.6934C30.9459 46.9408 31.5227 46.2798 32.288 45.7708C33.1871 45.1739 34.1813 44.8938 35.1812 44.8919C36.0289 44.8919 36.8731 45.1006 37.6256 45.4944C38.38 45.8899 39.041 46.4667 39.55 47.232C40.147 48.1311 40.4253 49.1253 40.4271 50.1252C40.4271 50.973 40.2201 51.8171 39.8265 52.5697Z" fill="#DEC7A6"/>
<path d="M43.2927 0.5L23.0009 30.5898L2.70922 0.5C-1.50227 29.222 23.0009 39.1389 23.0009 39.1389C23.0009 39.1389 47.5041 29.222 43.2927 0.5Z" fill="#DEC7A6"/>
</svg>
