<svg width="60" height="60" viewBox="0 0 60 60" fill="none" xmlns="http://www.w3.org/2000/svg">
<g id="gps-location-map_svgrepo.com">
<g id="koper">
<g id="Group">
<path id="Vector" d="M30.3125 30.0625C34.9724 30.0625 38.75 26.4248 38.75 21.9375C38.75 17.4502 34.9724 13.8125 30.3125 13.8125C25.6526 13.8125 21.875 17.4502 21.875 21.9375C21.875 26.4248 25.6526 30.0625 30.3125 30.0625Z" fill="white"/>
<path id="Vector_2" d="M30 8.1875C22.4375 8.1875 16.25 15 16.25 23.3125C16.25 30.8125 27.5 46.75 30 50.25C32.5 46.75 43.75 30.8125 43.75 23.3125C43.75 14.9375 37.5625 8.1875 30 8.1875ZM30.3125 31.3125C25 31.3125 20.625 27.125 20.625 21.9375C20.625 16.75 25 12.5625 30.3125 12.5625C35.625 12.5625 40 16.75 40 21.9375C40 27.125 35.625 31.3125 30.3125 31.3125Z" fill="white"/>
</g>
</g>
</g>
</svg>
